<svg id="Ebene_1" data-name="Ebene 1" xmlns="http://www.w3.org/2000/svg" width="383.57" height="66.41" viewBox="0 0 383.57 66.41"><defs><style>.cls-1{fill:#0c4650;}</style></defs><title>Senacor-Logo-Petrol</title><path class="cls-1" d="M75.22,28.88c-.09.18-.27.18-.4.23C72,30.16,69.15,31,66.26,31.82a.6.6,0,0,1-.57-.08c-1.75-1.2-3.53-2.37-5.36-3.44l0-.11h3.58c2.16,0,4.32,0,6.48.06a20.11,20.11,0,0,1,3.53.27,5.35,5.35,0,0,1,1.26.36m-14.94-8c-.43.84-.89,1.66-1.31,2.51a.58.58,0,0,1-.6.36c-2,0-4,0-5.93,0a1.06,1.06,0,0,1-.5-.1q-4.7-2.33-9.59-4.23l-.08-.06c.05-.16.2-.23.32-.33a72.09,72.09,0,0,1,10-7.22,20.18,20.18,0,0,1,5.62-2.35,9.93,9.93,0,0,1,3.12-.27,4.19,4.19,0,0,1,1.05.22,2.42,2.42,0,0,1,1.7,2.77,6.67,6.67,0,0,1-.53,1.87c-1,2.32-2.13,4.56-3.28,6.8m-19.62.22c2.12.83,4.27,1.59,6.34,2.54,0,0,.11,0,.07.13-3.1.1-6.21,0-9.31,0,0-.17.09-.23.16-.31.72-.81,1.54-1.52,2.33-2.26a.35.35,0,0,1,.42-.09m14.14,7.11a1.68,1.68,0,0,1,1,.34,1,1,0,0,1-.23.45c-1.27,2-2.61,4-4,6a.89.89,0,0,1-.61.41c-2.71.54-5.42,1.06-8.14,1.51-2.25.38-4.51.71-6.77,1-2.51.29-5,.5-7.54.66a9.18,9.18,0,0,1-2.67-.14c-.44-.1-.47-.18-.31-.6a5.9,5.9,0,0,1,.71-1.25,46.87,46.87,0,0,1,3.3-4.15c1.13-1.3,2.29-2.56,3.42-3.85a1,1,0,0,1,.83-.38q10.49,0,21,0m-19.69-9L33.43,20.9l-2.31,2.35a.61.61,0,0,1-.53.25A48.53,48.53,0,0,1,20,21.71a13.81,13.81,0,0,1-3.24-1.41,5.59,5.59,0,0,1-1.62-1.41c-.24-.33-.24-.34.06-.63A5.88,5.88,0,0,1,18,16.86a14.91,14.91,0,0,1,4.4-.27A57.24,57.24,0,0,1,34.53,19l.57.18m20,15.37c1-1.62,2-3.13,2.9-4.72,1.57.95,3.08,1.88,4.61,3-2.51.64-4.94,1.21-7.51,1.77m-2,3a1.15,1.15,0,0,1,.78-.5c3.54-.74,7.05-1.59,10.55-2.52a1,1,0,0,1,1,.19,66.27,66.27,0,0,1,6.83,5.72,26.3,26.3,0,0,1,3.74,4.44,10.41,10.41,0,0,1,1.55,3.51l.05.25a2.13,2.13,0,0,1-.57,2,7.54,7.54,0,0,1-3.76,2.21,15.51,15.51,0,0,1-4,.53A73.25,73.25,0,0,1,61.31,53c-2.73-.26-5.45-.63-8.16-1.07-3.2-.52-6.37-1.16-9.54-1.87-.1,0-.19-.06-.33-.11.93-1.09,1.82-2.13,2.7-3.19,2.48-3,4.85-6,7.07-9.18m27.79-11A3,3,0,0,0,79,24.6a8.27,8.27,0,0,0-2.25-.52c-1.49-.17-3-.22-4.47-.27-2.47-.07-4.95-.06-7.42-.06H61.48a1,1,0,0,1,.17-.46c1.3-2.63,2.61-5.25,3.88-7.88a39.81,39.81,0,0,0,2.14-5,11.07,11.07,0,0,0,.66-3.78,3.47,3.47,0,0,0-3-3.58,10.38,10.38,0,0,0-3.69.06A26.72,26.72,0,0,0,56,4.75a43.12,43.12,0,0,0-8.21,4.44C45.17,11,42.48,12.8,40,14.83c-.95.77-1.88,1.55-2.77,2.39a.63.63,0,0,1-.82.16,1.08,1.08,0,0,0-.2-.06,62.77,62.77,0,0,0-13.76-2.88,15.57,15.57,0,0,0-5.22.36,6.06,6.06,0,0,0-3.3,2.06,6.11,6.11,0,0,0,.26,7.52,8.27,8.27,0,0,0,2.39,1.84,15,15,0,0,0,5.07,1.44c1.57.2,3.15.28,4.73.33.1,0,.24-.06.32.08a1.26,1.26,0,0,1-.28.36c-1.21,1.41-2.43,2.81-3.56,4.28a19.59,19.59,0,0,0-2.24,3.57,2.69,2.69,0,0,0,1.22,3.8l.27.14a7.88,7.88,0,0,0,2.71.73,23.78,23.78,0,0,0,3.6,0q2.44-.12,4.87-.45c2.24-.3,4.48-.65,6.72-1q3.89-.59,7.76-1.32l1.78-.32-2,2.74c-2.07,2.81-4.21,5.55-6.38,8.28a.73.73,0,0,1-.9.3c-2.5-.66-5-1.32-7.48-2.06a152.23,152.23,0,0,1-30-12.45c-.11-.06-.21-.18-.42-.12L3,35.83a7.77,7.77,0,0,0,.92,1.65A7.64,7.64,0,0,0,5.47,38.6,141.07,141.07,0,0,0,36.32,53.36a4.1,4.1,0,0,1,.86.32c0,.14-.13.21-.2.3q-1.65,2-3.36,3.83a1.64,1.64,0,0,0-.36.61c-.33,1-.67,2-1,3a.4.4,0,0,0,0,.42,5.43,5.43,0,0,1,.35-.46c2.16-2.22,4.31-4.44,6.4-6.72a.59.59,0,0,1,.71-.18q2.11.64,4.24,1.23a98.57,98.57,0,0,0,15.42,3c2.41.26,4.83.4,7.25.44a26,26,0,0,0,6.7-.63,11.13,11.13,0,0,0,4.32-2,6.78,6.78,0,0,0,2.66-4.92,10.83,10.83,0,0,0-1.09-5.74,25.59,25.59,0,0,0-4-5.79,51.42,51.42,0,0,0-6.8-6.29,1.13,1.13,0,0,1-.38-.35l.23-.08C70.64,32.65,73,32,75.36,31.2a18,18,0,0,0,3.92-1.78,5.83,5.83,0,0,0,1.09-.86,2,2,0,0,0,.47-2" transform="translate(-2.32 -2.9)"/><path class="cls-1" d="M362.89,45.5a6.87,6.87,0,0,1-3.79,4.37A13.78,13.78,0,0,1,355,51c-.56.07-1.12.13-1.69.17a4.86,4.86,0,0,1-1,0,8.84,8.84,0,0,1-1.47-.18,1.14,1.14,0,0,1,0-.47q0-8.94,0-17.88a1.89,1.89,0,0,0,0-.26c0-.21.08-.25.26-.28a17.08,17.08,0,0,1,4.06-.13,11.15,11.15,0,0,1,2.57.52A7.7,7.7,0,0,1,363,38.17a14.15,14.15,0,0,1,.35,4.91,11.93,11.93,0,0,1-.45,2.42m23,22c0-.19-.06-.29-.25-.3l-.25,0a16.07,16.07,0,0,1-3.63-.9,22.76,22.76,0,0,1-6.57-4C373,60.49,371,58.41,369,56.39c-1.66-1.67-3.3-3.35-5.07-4.91l-.74-.63A17.44,17.44,0,0,0,366.46,49a9.82,9.82,0,0,0,3.48-4.18,10,10,0,0,0,.7-4.84,9.11,9.11,0,0,0-2-5.07A11.31,11.31,0,0,0,364,31.71a23.44,23.44,0,0,0-8.4-1.54c-4.28-.09-8.55.07-12.82.32-.8,0-1.61.11-2.41.15-.24,0-.34.07-.32.33a11,11,0,0,1,0,1.13c0,.25.07.32.32.34a7.23,7.23,0,0,1,1.77.3,2.51,2.51,0,0,1,1.83,2,10.07,10.07,0,0,1,.21,2.25V61.85A15.42,15.42,0,0,1,344,63.7a2.85,2.85,0,0,1-2.5,2.78,8.53,8.53,0,0,1-1.17.16c-.17,0-.24.07-.24.25,0,.39,0,.79,0,1.18,0,.21.09.27.27.26h14.28c.14,0,.23,0,.22-.2,0-.43,0-.86,0-1.29,0-.16-.1-.19-.23-.2l-.82-.09a2.89,2.89,0,0,1-2.8-2.67,10.75,10.75,0,0,1-.18-1.84c0-3,0-6,0-9a.37.37,0,0,1,.06-.27c.34,0,.7.07,1.05.07a30.31,30.31,0,0,0,3.76-.07,1,1,0,0,1,.75.23c.88.69,1.76,1.37,2.59,2.12,1.71,1.54,3.29,3.22,4.92,4.84s3,3,4.57,4.47a16.72,16.72,0,0,0,9.09,4.23,39.67,39.67,0,0,0,4,.35c1.29,0,2.57,0,3.86,0,.26,0,.37-.08.36-.35s0-.76,0-1.13" transform="translate(-2.32 -2.9)"/><path class="cls-1" d="M205.46,32.43c0-.51,0-1,0-1.5,0-.13.07-.18.19-.18h9.84c.38,0,.39,0,.39.4s0,.72,0,1.08a.23.23,0,0,1-.23.27c-.29,0-.58.08-.86.14a2.66,2.66,0,0,0-2.09,1.92,8,8,0,0,0-.32,1.92c0,.34,0,.69,0,1V68.18c0,.6.08.55-.55.55s-1.44,0-2.17,0a.72.72,0,0,1-.62-.27L193.51,50.89,182.26,38.15l-.42-.45v.6q0,11.31,0,22.63A15.21,15.21,0,0,0,182,64a3,3,0,0,0,2.9,2.65c.45.05.45.05.46.52s0,.65,0,1c0,.17-.08.25-.25.24h-9.79c-.38,0-.39,0-.39-.41s0-.65,0-1,.05-.34.31-.34a4.54,4.54,0,0,0,1.21-.2,2.57,2.57,0,0,0,1.87-1.81,7.07,7.07,0,0,0,.3-1.77c0-.36,0-.72,0-1.08q0-13,0-26a8.81,8.81,0,0,1,0-1,1.11,1.11,0,0,0-.42-1,5.16,5.16,0,0,0-2.94-1.35c-.36-.05-.37-.06-.37-.44s0-.62,0-.93.11-.34.36-.34q4.28,0,8.55,0a.73.73,0,0,1,.6.33l5.72,6.5,16.48,18.72L209,58.87l.24.25v-.61q0-10.49,0-21a18.13,18.13,0,0,0-.11-2.31,2.72,2.72,0,0,0-2.73-2.69l-.9-.11" transform="translate(-2.32 -2.9)"/><path class="cls-1" d="M330.5,50.3a23.33,23.33,0,0,1-1.74,9.18,14,14,0,0,1-3.17,4.65,11.12,11.12,0,0,1-8.07,3.16,12.56,12.56,0,0,1-9.08-4,17.14,17.14,0,0,1-4.32-8,27.13,27.13,0,0,1-.65-8.94,21.44,21.44,0,0,1,1.57-6.73,13.46,13.46,0,0,1,3.81-5.29A11.19,11.19,0,0,1,315,31.8c5.13-.51,9,1.57,11.94,5.7a19.29,19.29,0,0,1,3,7.12,29,29,0,0,1,.6,5.67m6.35-5.62a17.18,17.18,0,0,0-10.37-13,22.67,22.67,0,0,0-14.65-1.35,18.71,18.71,0,0,0-12.3,8.94,20.6,20.6,0,0,0-2.74,8.12A21.42,21.42,0,0,0,296.9,54a17.57,17.57,0,0,0,8,12,21.63,21.63,0,0,0,11.92,3.27,24,24,0,0,0,4.56-.49,19.14,19.14,0,0,0,11.36-6.93,20.46,20.46,0,0,0,4.07-17.21" transform="translate(-2.32 -2.9)"/><path class="cls-1" d="M169.5,60.69c-.09.85-.17,1.63-.25,2.42-.16,1.48-.33,3-.48,4.45-.08.77-.06.77-.81.77h-27c-.63,0-.63,0-.63-.62,0-.36-.11-.8.06-1.05s.66-.16,1-.24l.2-.06a2.73,2.73,0,0,0,2.34-2.73,8.66,8.66,0,0,0,0-1.08q0-13,0-26.08a6.62,6.62,0,0,0-.24-2A2.5,2.5,0,0,0,142,32.74a5.62,5.62,0,0,0-1.36-.24c-.22,0-.34-.09-.32-.35s0-.79,0-1.18c0-.15.06-.22.21-.22h26.39c.38,0,.38,0,.41.4q.24,2.87.5,5.75c0,.07,0,.14,0,.21s0,.29-.24.28q-.72,0-1.44,0a.31.31,0,0,1-.36-.27,9.54,9.54,0,0,0-.52-1.5,4.44,4.44,0,0,0-.57-1,2.93,2.93,0,0,0-2.2-1.06c-.58-.05-1.17-.07-1.75-.08h-10.1c-.17,0-.26.06-.25.23s0,.21,0,.31V47a2.52,2.52,0,0,1,0,.26c0,.19,0,.28.25.27,3.09,0,6.18,0,9.28,0a3.91,3.91,0,0,0,.81-.13,2,2,0,0,0,1.48-1.3,5.72,5.72,0,0,0,.33-1.24c0-.25.14-.31.37-.3s.72,0,1.08,0,.35,0,.36.38,0,.72,0,1.08v6.86c0,.5,0,.46-.48.46-.33,0-.65,0-1,0s-.41,0-.44-.35a4.24,4.24,0,0,0-.32-1.08,2.35,2.35,0,0,0-2.05-1.49,11.94,11.94,0,0,0-1.54-.1h-7.94c-.15,0-.22.06-.22.21s0,.21,0,.31q0,5.57,0,11.13a8.39,8.39,0,0,0,.21,2.09,1.79,1.79,0,0,0,1.46,1.41,7.42,7.42,0,0,0,1.59.12c2.53,0,5.05,0,7.58,0a10.65,10.65,0,0,0,2.74-.39,4.23,4.23,0,0,0,2.49-2,9.51,9.51,0,0,0,.93-2.11.46.46,0,0,1,.54-.39c.5,0,1,0,1.55,0" transform="translate(-2.32 -2.9)"/><path class="cls-1" d="M241.06,51.16H229.33l6-15.28,5.77,15.28M256.6,66.93c0-.2-.08-.26-.27-.27a8.21,8.21,0,0,1-1.07-.13A3.33,3.33,0,0,1,253,64.87a16.52,16.52,0,0,1-1.25-2.76L240.11,31.2c-.17-.45-.17-.45-.65-.45h-5.72a.86.86,0,0,0-.47.07c.18.49.33,1,.53,1.41a1.24,1.24,0,0,1,0,1Q230.9,40.43,228,47.61L222.18,62.2a13.85,13.85,0,0,1-1.28,2.52,3.86,3.86,0,0,1-2.61,1.77c-.32.06-.64.12-1,.15-.16,0-.25.06-.25.24,0,.41,0,.82,0,1.24,0,.15,0,.23.21.22h10.1c.2,0,.28-.06.27-.26,0-.38,0-.76,0-1.13s-.1-.27-.3-.3a7.14,7.14,0,0,1-1.36-.28,1.9,1.9,0,0,1-1.41-2.3,6.91,6.91,0,0,1,.43-1.69l3-7.77c.17-.44.17-.44.65-.44h11.9c.45,0,.89,0,1.34,0a.36.36,0,0,1,.41.28c.23.63.48,1.25.72,1.87.78,2,1.63,4.07,2.36,6.14a6.61,6.61,0,0,1,.47,2.1,1.56,1.56,0,0,1-1.08,1.64,4.15,4.15,0,0,1-.54.18,6.07,6.07,0,0,1-1.37.22c-.24,0-.33.11-.31.35s0,.55,0,.83c0,.65-.09.57.57.57h13.24c.15,0,.21-.06.21-.21,0-.39,0-.79,0-1.19" transform="translate(-2.32 -2.9)"/><path class="cls-1" d="M131.62,37.59c-.62,0-1.18,0-1.74,0-.23,0-.28-.17-.36-.31a11.05,11.05,0,0,0-1.24-1.89,9.14,9.14,0,0,0-5.45-3.17A13.43,13.43,0,0,0,119.6,32,6.11,6.11,0,0,0,114,36.46a5,5,0,0,0,1.55,5.37,15.07,15.07,0,0,0,2.77,2c1.46.87,3,1.62,4.5,2.38a53.56,53.56,0,0,1,5.53,3.07A16.75,16.75,0,0,1,132,52.48a9.4,9.4,0,0,1,.09,11.8,12.42,12.42,0,0,1-6,4.1,18.87,18.87,0,0,1-6.85.91,31.18,31.18,0,0,1-6.39-1,7.11,7.11,0,0,0-2.19-.28,1.89,1.89,0,0,0-1.22.47.65.65,0,0,1-.51.18h-.88c-.39,0-.39,0-.46-.38q-.26-1.55-.52-3.09l-.82-5a14.78,14.78,0,0,1,1.68,0c.13,0,.15.12.19.21s.22.47.33.69a9.84,9.84,0,0,0,5.74,4.79,15.63,15.63,0,0,0,6.54.8A7.69,7.69,0,0,0,126.26,64a5.58,5.58,0,0,0,0-7.52,14,14,0,0,0-2.76-2.38,58.27,58.27,0,0,0-5.16-3A60.85,60.85,0,0,1,113,48a17,17,0,0,1-3.32-2.84A8.22,8.22,0,0,1,107.62,41a8.38,8.38,0,0,1,1.12-5.64,11,11,0,0,1,6.35-4.95,15.6,15.6,0,0,1,6.06-.57,35.2,35.2,0,0,1,5,.82,5,5,0,0,0,1.49,0,1.57,1.57,0,0,0,1-.46.8.8,0,0,1,.69-.24c.3,0,.67-.12.89.07s.16.58.22.88l1.09,6c0,.2.06.41.11.7" transform="translate(-2.32 -2.9)"/><path class="cls-1" d="M294,60.46l-.83,2.36-1.78,5.09c-.15.43-.16.44-.55.28a4.7,4.7,0,0,0-2.28-.25c-1.28.12-2.54.37-3.81.62a35.73,35.73,0,0,1-6.64.75,23.89,23.89,0,0,1-10.6-2.14,16.65,16.65,0,0,1-9.34-11.38,21.87,21.87,0,0,1,1.91-16.17,18,18,0,0,1,11.55-9,26.34,26.34,0,0,1,8.93-.78,43.26,43.26,0,0,1,8,1.51c.45.12.9.22,1.35.31a1.7,1.7,0,0,0,1.65-.27c.13-.12.29-.07.44-.06.35,0,.8-.16,1,.09s.07.66.08,1q.09,3,.18,6.08c0,.1,0,.21,0,.31s-.09.29-.3.29a9.71,9.71,0,0,0-1.08,0,.46.46,0,0,1-.51-.31,12.12,12.12,0,0,0-2.87-3.6A14.33,14.33,0,0,0,281.91,32a15.73,15.73,0,0,0-5.17-.19,12.81,12.81,0,0,0-9,5.33,16.78,16.78,0,0,0-2.8,6.57,23.81,23.81,0,0,0-.4,7.07A20,20,0,0,0,268.17,61a14.09,14.09,0,0,0,20.62,2.81,15.64,15.64,0,0,0,2.89-3,.76.76,0,0,1,.73-.35c.53,0,1.06,0,1.64,0" transform="translate(-2.32 -2.9)"/></svg>